/* XPM */
static char *_d67a40c552444b7f198b9994325f0faTkeNQDb734gAMauC[] = {
/* columns rows colors chars-per-pixel */
"12 16 6 1 ",
"  c None",
". c #2F2522",
"X c #B9B3A1",
"o c #D19DA7",
"O c #E7D5C6",
"+ c #FAF3E8",
/* pixels */
"   ......   ",
"  .X++++X.  ",
" .X++++++X. ",
" .++++++++. ",
" .++++++++. ",
".X++.++.++X.",
".X++.OO.++X.",
" .+oo++oo+. ",
"  .++++++.  ",
"   .XXXX.   ",
"  .++++++.  ",
" .+X++++X+. ",
".++X++++X++.",
".++X++++X++.",
" ..XX..XX.. ",
"  .++..++.  "
};
